<svg xmlns="http://www.w3.org/2000/svg" width="360" height="120" viewBox="0 0 360 120">
  <g id="グループ_4" data-name="グループ 4" transform="translate(-151 -124)">
    <g id="グループ_1" data-name="グループ 1">
      <rect id="長方形_1" data-name="長方形 1" width="120" height="120" transform="translate(151 124)" fill="none"/>
      <g id="挙手アイコン" transform="translate(88.686 134)">
        <path id="パス_3" data-name="パス 3" d="M141.559,7.768a9.141,9.141,0,0,0-2.745.419,9.208,9.208,0,0,0-13.665-5.238,9.2,9.2,0,0,0-15.9,5.243,9.208,9.208,0,0,0-11.632,8.876c0,2.431-.01,9.513-.014,16.316a11.48,11.48,0,0,0-5.787-1.609h0a8.354,8.354,0,0,0-7.036,3.484c-1.22,1.764-2.3,4.848-.542,9.551,6.419,18.326,11.315,27.408,14.557,33.421,2.852,5.292,3.92,7.272,3.92,11.223v1.609A8.948,8.948,0,0,0,111.65,100h21.639a8.947,8.947,0,0,0,8.937-8.937V89.756c0-1.639,1.012-3.775,2.295-6.477,2.637-5.557,6.249-13.169,6.249-26.127V16.981A9.223,9.223,0,0,0,141.559,7.768Zm4.381,49.384c0,19.141-8.544,25.423-8.544,32.6v1.307a4.109,4.109,0,0,1-4.107,4.108H111.65a4.11,4.11,0,0,1-4.108-4.108V89.454c0-10.7-6.568-11.45-18.765-46.29-1.728-4.575.365-6.56,3.038-6.56a6.934,6.934,0,0,1,6,3.759c2.649,6.251,3.606,9.665,4.117,9.665.215,0,.35-.6.5-1.858-.012-.674.019-31.1.019-31.1a4.379,4.379,0,0,1,8.757,0V34.743a17.739,17.739,0,0,1,2.82-.229V9.205a4.377,4.377,0,0,1,8.754,0V35.582q1.4.274,2.82.586V10.785a4.38,4.38,0,0,1,8.76,0v27.2c1,.2,1.938.409,2.824.624V16.981a4.379,4.379,0,1,1,8.757,0Z" fill="#4b4b4b"/>
      </g>
    </g>
    <g id="グループ_2" data-name="グループ 2" transform="translate(-59)">
      <rect id="長方形_2" data-name="長方形 2" width="120" height="120" transform="translate(330 124)" fill="none"/>
      <g id="つかむ手のアイコン3" transform="translate(351.968 158)">
        <path id="パス_1" data-name="パス 1" d="M73.542,20.178a17.886,17.886,0,0,0-1.615-6.236A14.655,14.655,0,0,0,66.71,7.891a11.883,11.883,0,0,0-6.363-2.024h0a8.083,8.083,0,0,0-1.684.174,9.419,9.419,0,0,0-.616-.97v0a8.934,8.934,0,0,0-2.511-2.326,13.514,13.514,0,0,0-2.682-1.239,11.321,11.321,0,0,0-3.783-.66h-.037a11.541,11.541,0,0,0-4.768,1.07,12.542,12.542,0,0,0-1.389.757,9.789,9.789,0,0,0-1.425-1.057h0A11.414,11.414,0,0,0,36.564.068C36.105.023,35.655,0,35.216,0h-.032a12.38,12.38,0,0,0-4.812.949,11.858,11.858,0,0,0-4.849,3.765,10.741,10.741,0,0,0-1.308,2.233,10.7,10.7,0,0,0-1.383-.1H22.81a15.334,15.334,0,0,0-5.619.956,10.4,10.4,0,0,0-3.164,1.926h0a10.151,10.151,0,0,0-2.783,4.218,14.181,14.181,0,0,0-.758,4.737,18.8,18.8,0,0,0,.135,2.164,16.215,16.215,0,0,0-3.075,1.74h0a13,13,0,0,0-4.364,5.457v0a15.252,15.252,0,0,0-1.151,5.978,20.517,20.517,0,0,0,.633,4.959,18.048,18.048,0,0,0,1.273,3.559h0a36.407,36.407,0,0,0,3.239,5.109,68.112,68.112,0,0,1,4.861,7.043,18.342,18.342,0,0,1,1.571,3.686A14.527,14.527,0,0,1,14.2,62.5V72.576h4.162V62.5a18.848,18.848,0,0,0-1.3-6.875,34.922,34.922,0,0,0-4.788-8.083,49.557,49.557,0,0,1-4.614-6.858,14.13,14.13,0,0,1-.96-2.714A16.47,16.47,0,0,1,6.2,34.024a12.053,12.053,0,0,1,.346-2.939A8.886,8.886,0,0,1,8.7,27.095a11.67,11.67,0,0,1,4.919-2.944,2.7,2.7,0,0,1,.373.039,1.855,1.855,0,0,1,.376.107,1.025,1.025,0,0,1,.186.1.409.409,0,0,1,.13.154,1.124,1.124,0,0,1,.084.494V35.856a1.753,1.753,0,0,0,3.507,0V25.047a4.474,4.474,0,0,0-.625-2.369,3.953,3.953,0,0,0-1.109-1.167,4.781,4.781,0,0,0-1.737-.733,15.307,15.307,0,0,1-.156-2.092,10.442,10.442,0,0,1,.408-3.01,6.717,6.717,0,0,1,.87-1.846,5.739,5.739,0,0,1,2.407-1.988,10.7,10.7,0,0,1,4.491-.831,6.134,6.134,0,0,1,2.122.346,5.158,5.158,0,0,1,2.391,1.824,8.557,8.557,0,0,1,1.112,2.08A14.046,14.046,0,0,1,29.21,18.4c.056.433.082.791.095,1.033.007.121.01.214.013.272v.073a1.753,1.753,0,0,0,3.505,0,15.762,15.762,0,0,0-.145-1.871,18.133,18.133,0,0,0-.623-2.918,11.778,11.778,0,0,0-2.81-4.94A8.607,8.607,0,0,0,27.9,8.953a5.071,5.071,0,0,1,.34-.79,7.566,7.566,0,0,1,2.481-2.7,7.946,7.946,0,0,1,4.469-1.3c.31,0,.633.015.967.047h0a6.93,6.93,0,0,1,3.558,1.252A5.976,5.976,0,0,1,40.787,6.5a1.737,1.737,0,0,0,.388.683,1.76,1.76,0,0,0,.243.213A14.517,14.517,0,0,1,43,11.884a52.031,52.031,0,0,1,.783,6.064,1.753,1.753,0,1,0,3.494-.29c-.167-2-.371-3.949-.708-5.794A23.64,23.64,0,0,0,45.52,7.909a14.746,14.746,0,0,0-.683-1.557A8.615,8.615,0,0,1,46,5.7a7.37,7.37,0,0,1,3.07-.692,7.12,7.12,0,0,1,2.4.423,8.455,8.455,0,0,1,2.15,1.033A4.768,4.768,0,0,1,54.78,7.661a7.378,7.378,0,0,1,.807,1.586,1.74,1.74,0,0,0,.347,1.062c.1.343.188.71.273,1.115a41.217,41.217,0,0,1,.691,7.52,1.752,1.752,0,0,0,3.5-.065,47.6,47.6,0,0,0-.623-7.446c-.083-.466-.178-.9-.278-1.32a4.009,4.009,0,0,1,.843-.083A6.943,6.943,0,0,1,63,10.613a9.837,9.837,0,0,1,4.1,3.306,12.77,12.77,0,0,1,2.295,6.6c.315,3.882.478,7.588.478,11.216a113.473,113.473,0,0,1-.691,12.622,58.167,58.167,0,0,1-3.139,12.572c-.634,1.771-1.239,3.265-1.682,4.31-.222.522-.4.933-.529,1.211-.063.139-.111.244-.142.315l-.037.076-.007.018,0,0-.169.355v9.362h4.164V64.133c.412-.915,1.328-3.024,2.323-5.806a62.107,62.107,0,0,0,3.358-13.516,117.948,117.948,0,0,0,.716-13.082C74.032,27.979,73.865,24.158,73.542,20.178Z" fill="#4b4b4b"/>
        <path id="パス_1_-_アウトライン" data-name="パス 1 - アウトライン" d="M35.184-.25h.037c.459,0,.919.024,1.367.068A11.656,11.656,0,0,1,41.58,1.4l.761.463h-.068q.32.234.627.5a12.231,12.231,0,0,1,1.259-.675A11.733,11.733,0,0,1,49.031.6h.038a11.56,11.56,0,0,1,3.867.674,13.771,13.771,0,0,1,2.731,1.262,9.166,9.166,0,0,1,2.578,2.387h0a8.972,8.972,0,0,1,.542.838,8.412,8.412,0,0,1,1.557-.143,12.1,12.1,0,0,1,6.5,2.064,14.914,14.914,0,0,1,5.308,6.154,18.132,18.132,0,0,1,1.638,6.323c.33,4.066.491,7.851.491,11.572a117.727,117.727,0,0,1-.717,13.109,61.409,61.409,0,0,1-3.371,13.572c-.969,2.709-1.854,4.764-2.309,5.775v8.639H63.221V63.157l.238-.5.065-.145.076-.167c.138-.3.325-.732.527-1.206.4-.954,1.024-2.475,1.677-4.3A58.159,58.159,0,0,0,68.93,44.325a112.885,112.885,0,0,0,.69-12.594c0-3.573-.156-7.235-.477-11.2A12.576,12.576,0,0,0,66.9,14.066,9.5,9.5,0,0,0,62.9,10.844a6.75,6.75,0,0,0-2.541-.564h-.03a3.9,3.9,0,0,0-.523.035c.088.387.159.734.22,1.075a47.855,47.855,0,0,1,.627,7.486,2,2,0,0,1-1.965,2.038h-.041a2.01,2.01,0,0,1-2-1.965,41.414,41.414,0,0,0-.686-7.473c-.077-.362-.161-.708-.257-1.056a2.005,2.005,0,0,1-.369-1.126,7.127,7.127,0,0,0-.762-1.49,4.509,4.509,0,0,0-1.108-1.135,8.151,8.151,0,0,0-2.086-1,6.845,6.845,0,0,0-2.315-.408,7.117,7.117,0,0,0-2.966.67,8.05,8.05,0,0,0-.939.51c.217.442.416.906.593,1.381a23.811,23.811,0,0,1,1.06,4c.366,2,.565,4.063.712,5.819A2,2,0,0,1,45.7,19.8c-.056,0-.113.007-.169.007a2.015,2.015,0,0,1-1.994-1.838,52.814,52.814,0,0,0-.778-6.034A14.388,14.388,0,0,0,41.228,7.57a1.907,1.907,0,0,1-.665-.945,5.668,5.668,0,0,0-1-.961,6.691,6.691,0,0,0-3.433-1.2l-.089-.009c-.286-.025-.573-.038-.854-.038A7.757,7.757,0,0,0,30.86,5.67a7.352,7.352,0,0,0-2.4,2.61,4.989,4.989,0,0,0-.261.574,8.82,8.82,0,0,1,1.222,1.015A11.855,11.855,0,0,1,32.3,14.912a18.372,18.372,0,0,1,.632,2.959,16.42,16.42,0,0,1,.147,1.887v.012a2,2,0,1,1-4.005.007v-.066c0-.057-.006-.147-.012-.265-.012-.223-.037-.58-.093-1.015a13.754,13.754,0,0,0-.746-3.08,8.249,8.249,0,0,0-1.079-2.019,4.883,4.883,0,0,0-2.277-1.74,5.884,5.884,0,0,0-2.036-.331,10.546,10.546,0,0,0-4.386.808,5.473,5.473,0,0,0-2.306,1.9A6.5,6.5,0,0,0,15.3,15.75a10.139,10.139,0,0,0-.4,2.937,14.613,14.613,0,0,0,.131,1.888,4.943,4.943,0,0,1,1.654.732,4.218,4.218,0,0,1,1.18,1.241,4.7,4.7,0,0,1,.662,2.5V35.856a2,2,0,0,1-4.007,0V25.047a.9.9,0,0,0-.059-.385.154.154,0,0,0-.054-.063.775.775,0,0,0-.134-.072,1.615,1.615,0,0,0-.323-.091,2.442,2.442,0,0,0-.294-.034,11.381,11.381,0,0,0-4.773,2.864,8.608,8.608,0,0,0-2.1,3.879,11.8,11.8,0,0,0-.338,2.877,16.314,16.314,0,0,0,.5,3.883,13.576,13.576,0,0,0,.941,2.663,42.184,42.184,0,0,0,3.986,6.006l.605.815a35.217,35.217,0,0,1,4.82,8.141A19.2,19.2,0,0,1,18.613,62.5V72.826H13.952V62.5a14.271,14.271,0,0,0-.582-4.047,18.039,18.039,0,0,0-1.55-3.635A50.205,50.205,0,0,0,8.01,49.2c-.339-.456-.69-.927-1.034-1.4a36.7,36.7,0,0,1-3.261-5.144L3.689,42.6a18.488,18.488,0,0,1-1.266-3.556,20.7,20.7,0,0,1-.641-5.021,15.478,15.478,0,0,1,1.171-6.076h0a13.271,13.271,0,0,1,3.86-5.108H6.781l.617-.452A16.374,16.374,0,0,1,10.352,20.7a18.635,18.635,0,0,1-.116-2.009,14.452,14.452,0,0,1,.773-4.821A10.331,10.331,0,0,1,13.86,9.545l.417-.373v.02A10.793,10.793,0,0,1,17.1,7.573,15.651,15.651,0,0,1,22.8,6.6h.032a10.427,10.427,0,0,1,1.23.078,11.054,11.054,0,0,1,1.263-2.113A12.122,12.122,0,0,1,30.275.719,12.588,12.588,0,0,1,35.184-.25Zm6.027,2.016A11.219,11.219,0,0,0,36.54.317c-.435-.043-.88-.065-1.324-.066H35.18a12.09,12.09,0,0,0-4.711.93,11.621,11.621,0,0,0-4.747,3.685,10.5,10.5,0,0,0-1.278,2.181l-.075.173-.187-.024a10.372,10.372,0,0,0-1.348-.1H22.81a15.163,15.163,0,0,0-5.528.939,10.141,10.141,0,0,0-3.088,1.88l-.111.1a9.859,9.859,0,0,0-2.6,4.015,13.955,13.955,0,0,0-.744,4.654,18.41,18.41,0,0,0,.134,2.134l.022.184-.17.074A16.151,16.151,0,0,0,7.8,22.712l-.11.081a12.831,12.831,0,0,0-4.281,5.353h0a14.983,14.983,0,0,0-1.13,5.879,20.2,20.2,0,0,0,.626,4.9A17.614,17.614,0,0,0,4.163,42.43l.026.053A36.469,36.469,0,0,0,7.38,47.5c.343.469.693.939,1.032,1.394a50.565,50.565,0,0,1,3.847,5.676A18.53,18.53,0,0,1,13.85,58.31a14.765,14.765,0,0,1,.6,4.187v9.829h3.662V62.5a18.7,18.7,0,0,0-1.282-6.785,34.788,34.788,0,0,0-4.756-8.025l-.6-.813a42.524,42.524,0,0,1-4.032-6.081,14.5,14.5,0,0,1-.978-2.764,16.725,16.725,0,0,1-.515-4,12.3,12.3,0,0,1,.354-3,9.1,9.1,0,0,1,2.22-4.1,11.9,11.9,0,0,1,5.022-3.01l.043-.014.045,0a2.964,2.964,0,0,1,.408.043,2.1,2.1,0,0,1,.428.122,1.271,1.271,0,0,1,.232.127l.015.011a.656.656,0,0,1,.195.234l.005.011a1.361,1.361,0,0,1,.107.6v10.81a1.5,1.5,0,0,0,3.007,0V25.047a4.2,4.2,0,0,0-.588-2.237A3.714,3.714,0,0,0,16.4,21.717a4.532,4.532,0,0,0-1.647-.694l-.17-.037-.024-.173a15.4,15.4,0,0,1-.159-2.126,10.636,10.636,0,0,1,.418-3.083,7,7,0,0,1,.9-1.915,6.034,6.034,0,0,1,2.508-2.073,11.033,11.033,0,0,1,4.6-.854,6.375,6.375,0,0,1,2.207.361,5.363,5.363,0,0,1,2.5,1.909,8.747,8.747,0,0,1,1.147,2.142,14.259,14.259,0,0,1,.775,3.194c.058.45.084.82.1,1.051.007.123.011.217.013.275v.08a1.5,1.5,0,1,0,3.005,0v-.011a15.9,15.9,0,0,0-.142-1.827,17.869,17.869,0,0,0-.614-2.878,11.369,11.369,0,0,0-2.747-4.836,8.372,8.372,0,0,0-1.306-1.061l-.16-.105.06-.182a5.364,5.364,0,0,1,.357-.829,7.867,7.867,0,0,1,2.564-2.793,8.25,8.25,0,0,1,4.606-1.34c.326,0,.66.016.991.049l.091.01a7.113,7.113,0,0,1,3.591,1.289,6.2,6.2,0,0,1,1.117,1.084l.031.038.014.047a1.486,1.486,0,0,0,.332.586,1.514,1.514,0,0,0,.208.182l.041.03.026.043a14.764,14.764,0,0,1,1.613,4.563,53.263,53.263,0,0,1,.787,6.093,1.512,1.512,0,0,0,1.5,1.379c.042,0,.085,0,.127-.005a1.5,1.5,0,0,0,1.373-1.623c-.146-1.744-.343-3.793-.705-5.77A23.32,23.32,0,0,0,45.285,8a14.571,14.571,0,0,0-.671-1.531l-.1-.2.187-.123a8.8,8.8,0,0,1,1.193-.667,7.614,7.614,0,0,1,3.174-.715,7.336,7.336,0,0,1,2.481.437,8.608,8.608,0,0,1,2.212,1.065,4.989,4.989,0,0,1,1.227,1.255,7.684,7.684,0,0,1,.835,1.64l.017.045v.048a1.481,1.481,0,0,0,.3.909l.027.037.012.044c.1.373.2.743.277,1.13a41.894,41.894,0,0,1,.7,7.567,1.508,1.508,0,0,0,1.53,1.474,1.5,1.5,0,0,0,1.474-1.529,47.374,47.374,0,0,0-.619-7.407c-.073-.405-.16-.82-.275-1.306L59.2,9.921l.251-.053a4.267,4.267,0,0,1,.879-.089h.03a7.257,7.257,0,0,1,2.735.6,10,10,0,0,1,4.205,3.39,13.068,13.068,0,0,1,2.341,6.722c.322,3.974.479,7.649.479,11.236a113.379,113.379,0,0,1-.693,12.649,58.658,58.658,0,0,1-3.153,12.629c-.656,1.832-1.28,3.362-1.687,4.323-.2.478-.392.91-.532,1.217l-.076.168-.065.145-.056.119-.138.29v9.056h3.664V64.08l.022-.049c.444-.986,1.336-3.05,2.316-5.787a60.916,60.916,0,0,0,3.345-13.459,117.229,117.229,0,0,0,.714-13.054c0-3.707-.16-7.479-.489-11.532a17.635,17.635,0,0,0-1.592-6.15A14.414,14.414,0,0,0,66.573,8.1a11.6,11.6,0,0,0-6.227-1.983,7.861,7.861,0,0,0-1.634.168l-.179.038-.09-.16a9.1,9.1,0,0,0-.6-.944h0A8.669,8.669,0,0,0,55.4,2.959a13.307,13.307,0,0,0-2.634-1.216,11.061,11.061,0,0,0-3.7-.645h-.037a11.235,11.235,0,0,0-4.664,1.047,12.2,12.2,0,0,0-1.362.742l-.158.1-.139-.124a9.584,9.584,0,0,0-1.389-1.03Z" fill="#4b4b4b"/>
      </g>
    </g>
    <g id="グループ_3" data-name="グループ 3" transform="translate(-96)">
      <rect id="長方形_3" data-name="長方形 3" width="120" height="120" transform="translate(487 124)" fill="none"/>
      <g id="シンプルな_いいね_の手の線画アイコン" data-name="シンプルな「いいね」の手の線画アイコン" transform="translate(469.728 139)">
        <path id="パス_2" data-name="パス 2" d="M113.073,51.889a9.208,9.208,0,0,0,2.392-6.059,10.825,10.825,0,0,0-10.811-10.813H90.85c-3.032-.14-3.771-.714-3.8-.739l-.025-.033c.082-.8,1.472-2.763,2.153-3.719a18.058,18.058,0,0,0,2.428-4.114l.233-.632C93.188,22.151,95.7,15.4,92.976,7.635,91.326,2.928,87.653,0,83.4,0c-4.958,0-9.08,3.966-10.022,9.649-.316,1.912-4.507,9.119-12.508,18.526a66.351,66.351,0,0,1-7.353,7.059c-2.087,1.807-4.246,3.675-6.534,5.963-6,6-8.858,16.169-7.278,25.9,1.365,8.427,5.762,14.887,12.382,18.2,5.422,2.711,15.949,4.227,23.978,4.524,3.359.124,5.891.181,7.968.181a63.449,63.449,0,0,0,8.446-.505l.843-.093.143-.017,4.057-.588.077-.011A10.753,10.753,0,0,0,106.66,78.14l-.008-.382a10.712,10.712,0,0,0,5.065-9.146,10.3,10.3,0,0,0-.547-3.431,10.715,10.715,0,0,0,1.9-13.293Zm-8.136.714H108.1a6.357,6.357,0,0,1-.28,9.7h-4.241a1.452,1.452,0,0,0,0,2.9h2.648a4.844,4.844,0,0,1,1.132,3.406,6.364,6.364,0,0,1-2.368,4.944h-4.079a1.452,1.452,0,1,0,0,2.9h1.148a6.064,6.064,0,0,1,.242,1.681,6.432,6.432,0,0,1-5.411,6.345l-4.057.588a64.108,64.108,0,0,1-8.808.571c-1.945,0-4.422-.055-7.806-.181C68.551,85.18,58.71,83.738,54.03,81.4c-13.1-6.551-13.109-27.982-3.969-37.123C55.222,39.114,59.987,35.936,64.184,31c6.485-7.627,12.835-16.683,13.488-20.638.643-3.878,3.161-6,5.724-6,2.153,0,4.34,1.5,5.471,4.724,2.357,6.718-.211,12.7-1.351,15.831S80.037,33.141,83.9,37.28c1.434,1.538,4.249,1.983,6.858,2.1h13.9a6.452,6.452,0,0,1,6.455,6.455,5.224,5.224,0,0,1-2,3.867h-4.167a1.453,1.453,0,1,0,0,2.905Z" fill="#4b4b4b"/>
      </g>
    </g>
  </g>
</svg>
