<svg viewBox="0 0 3200 120" version="1.1" xmlns="http://www.w3.org/2000/svg">
  <path d="M330.164,79.946L344.461,78.696C345.138,84.425 346.714,89.125 349.188,92.797C351.662,96.469 355.503,99.438 360.711,101.703C365.92,103.969 371.779,105.102 378.289,105.102C384.071,105.102 389.175,104.242 393.602,102.524C398.029,100.805 401.323,98.448 403.485,95.453C405.646,92.459 406.727,89.19 406.727,85.649C406.727,82.055 405.685,78.917 403.602,76.235C401.518,73.552 398.081,71.3 393.289,69.477C390.216,68.279 383.42,66.417 372.899,63.891C362.378,61.365 355.008,58.982 350.789,56.742C345.321,53.878 341.245,50.323 338.563,46.078C335.88,41.834 334.539,37.081 334.539,31.821C334.539,26.039 336.18,20.636 339.461,15.61C342.742,10.584 347.534,6.768 353.836,4.164C360.138,1.56 367.143,0.258 374.852,0.258C383.341,0.258 390.828,1.625 397.313,4.36C403.797,7.094 408.784,11.117 412.274,16.43C415.763,21.742 417.638,27.758 417.899,34.477L403.367,35.571C402.586,28.331 399.943,22.862 395.438,19.164C390.933,15.466 384.279,13.617 375.477,13.617C366.31,13.617 359.63,15.297 355.438,18.656C351.245,22.016 349.149,26.065 349.149,30.805C349.149,34.92 350.633,38.305 353.602,40.961C356.518,43.617 364.136,46.339 376.453,49.125C388.771,51.912 397.222,54.347 401.805,56.43C408.472,59.503 413.393,63.396 416.571,68.11C419.748,72.823 421.336,78.253 421.336,84.399C421.336,90.492 419.591,96.235 416.102,101.625C412.612,107.016 407.599,111.209 401.063,114.203C394.526,117.198 387.17,118.696 378.992,118.696C368.628,118.696 359.943,117.185 352.938,114.164C345.933,111.143 340.438,106.599 336.453,100.531C332.469,94.464 330.373,87.602 330.164,79.946ZM2007.82,79.946L2022.12,78.696C2022.8,84.425 2024.37,89.125 2026.84,92.797C2029.32,96.469 2033.16,99.438 2038.37,101.703C2043.58,103.969 2049.43,105.102 2055.95,105.102C2061.73,105.102 2066.83,104.242 2071.26,102.524C2075.68,100.805 2078.98,98.448 2081.14,95.453C2083.3,92.459 2084.38,89.19 2084.38,85.649C2084.38,82.055 2083.34,78.917 2081.26,76.235C2079.18,73.552 2075.74,71.3 2070.95,69.477C2067.87,68.279 2061.08,66.417 2050.55,63.891C2040.03,61.365 2032.66,58.982 2028.45,56.742C2022.98,53.878 2018.9,50.323 2016.22,46.078C2013.54,41.834 2012.2,37.081 2012.2,31.821C2012.2,26.039 2013.84,20.636 2017.12,15.61C2020.4,10.584 2025.19,6.768 2031.49,4.164C2037.8,1.56 2044.8,0.258 2052.51,0.258C2061,0.258 2068.49,1.625 2074.97,4.36C2081.45,7.094 2086.44,11.117 2089.93,16.43C2093.42,21.742 2095.3,27.758 2095.55,34.477L2081.02,35.571C2080.24,28.331 2077.6,22.862 2073.09,19.164C2068.59,15.466 2061.93,13.617 2053.13,13.617C2043.97,13.617 2037.29,15.297 2033.09,18.656C2028.9,22.016 2026.81,26.065 2026.81,30.805C2026.81,34.92 2028.29,38.305 2031.26,40.961C2034.17,43.617 2041.79,46.339 2054.11,49.125C2066.43,51.912 2074.88,54.347 2079.46,56.43C2086.13,59.503 2091.05,63.396 2094.23,68.11C2097.4,72.823 2098.99,78.253 2098.99,84.399C2098.99,90.492 2097.25,96.235 2093.76,101.625C2090.27,107.016 2085.26,111.209 2078.72,114.203C2072.18,117.198 2064.83,118.696 2056.65,118.696C2046.28,118.696 2037.6,117.185 2030.59,114.164C2023.59,111.143 2018.09,106.599 2014.11,100.531C2010.12,94.464 2008.03,87.602 2007.82,79.946ZM1812.2,79.946L1826.49,78.696C1827.17,84.425 1828.75,89.125 1831.22,92.797C1833.69,96.469 1837.53,99.438 1842.74,101.703C1847.95,103.969 1853.81,105.102 1860.32,105.102C1866.1,105.102 1871.21,104.242 1875.63,102.524C1880.06,100.805 1883.35,98.448 1885.52,95.453C1887.68,92.459 1888.76,89.19 1888.76,85.649C1888.76,82.055 1887.72,78.917 1885.63,76.235C1883.55,73.552 1880.11,71.3 1875.32,69.477C1872.25,68.279 1865.45,66.417 1854.93,63.891C1844.41,61.365 1837.04,58.982 1832.82,56.742C1827.35,53.878 1823.28,50.323 1820.59,46.078C1817.91,41.834 1816.57,37.081 1816.57,31.821C1816.57,26.039 1818.21,20.636 1821.49,15.61C1824.77,10.584 1829.57,6.768 1835.87,4.164C1842.17,1.56 1849.17,0.258 1856.88,0.258C1865.37,0.258 1872.86,1.625 1879.34,4.36C1885.83,7.094 1890.82,11.117 1894.31,16.43C1897.8,21.742 1899.67,27.758 1899.93,34.477L1885.4,35.571C1884.62,28.331 1881.97,22.862 1877.47,19.164C1872.96,15.466 1866.31,13.617 1857.51,13.617C1848.34,13.617 1841.66,15.297 1837.47,18.656C1833.28,22.016 1831.18,26.065 1831.18,30.805C1831.18,34.92 1832.66,38.305 1835.63,40.961C1838.55,43.617 1846.17,46.339 1858.49,49.125C1870.8,51.912 1879.25,54.347 1883.84,56.43C1890.5,59.503 1895.42,63.396 1898.6,68.11C1901.78,72.823 1903.37,78.253 1903.37,84.399C1903.37,90.492 1901.62,96.235 1898.13,101.625C1894.64,107.016 1889.63,111.209 1883.09,114.203C1876.56,117.198 1869.2,118.696 1861.02,118.696C1850.66,118.696 1841.97,117.185 1834.97,114.164C1827.96,111.143 1822.47,106.599 1818.49,100.531C1814.5,94.464 1812.4,87.602 1812.2,79.946ZM525.789,79.946L540.086,78.696C540.763,84.425 542.339,89.125 544.813,92.797C547.287,96.469 551.128,99.438 556.336,101.703C561.545,103.969 567.404,105.102 573.914,105.102C579.696,105.102 584.8,104.242 589.227,102.524C593.654,100.805 596.948,98.448 599.11,95.453C601.271,92.459 602.352,89.19 602.352,85.649C602.352,82.055 601.31,78.917 599.227,76.235C597.143,73.552 593.706,71.3 588.914,69.477C585.841,68.279 579.045,66.417 568.524,63.891C558.003,61.365 550.633,58.982 546.414,56.742C540.946,53.878 536.87,50.323 534.188,46.078C531.505,41.834 530.164,37.081 530.164,31.821C530.164,26.039 531.805,20.636 535.086,15.61C538.367,10.584 543.159,6.768 549.461,4.164C555.763,1.56 562.768,0.258 570.477,0.258C578.966,0.258 586.453,1.625 592.938,4.36C599.422,7.094 604.409,11.117 607.899,16.43C611.388,21.742 613.263,27.758 613.524,34.477L598.992,35.571C598.211,28.331 595.568,22.862 591.063,19.164C586.558,15.466 579.904,13.617 571.102,13.617C561.935,13.617 555.255,15.297 551.063,18.656C546.87,22.016 544.774,26.065 544.774,30.805C544.774,34.92 546.258,38.305 549.227,40.961C552.143,43.617 559.761,46.339 572.078,49.125C584.396,51.912 592.847,54.347 597.43,56.43C604.097,59.503 609.018,63.396 612.196,68.11C615.373,72.823 616.961,78.253 616.961,84.399C616.961,90.492 615.216,96.235 611.727,101.625C608.237,107.016 603.224,111.209 596.688,114.203C590.151,117.198 582.795,118.696 574.617,118.696C564.253,118.696 555.568,117.185 548.563,114.164C541.558,111.143 536.063,106.599 532.078,100.531C528.094,94.464 525.998,87.602 525.789,79.946ZM106.727,116.742L106.727,15.727L68.992,15.727L68.992,2.211L159.774,2.211L159.774,15.727L121.883,15.727L121.883,116.742L106.727,116.742ZM293.446,116.742L293.446,2.211L308.602,2.211L308.602,116.742L293.446,116.742ZM489.071,116.742L489.071,2.211L504.227,2.211L504.227,116.742L489.071,116.742ZM1775.48,116.742L1775.48,2.211L1790.63,2.211L1790.63,116.742L1775.48,116.742ZM1971.1,116.742L1971.1,2.211L1986.26,2.211L1986.26,116.742L1971.1,116.742ZM1402.51,116.742L1402.51,2.211L1441.96,2.211C1450.87,2.211 1457.66,2.758 1462.35,3.852C1468.91,5.362 1474.51,8.097 1479.15,12.055C1485.19,17.159 1489.71,23.683 1492.7,31.625C1495.7,39.568 1497.2,48.643 1497.2,58.852C1497.2,67.55 1496.18,75.258 1494.15,81.977C1492.12,88.696 1489.51,94.255 1486.34,98.656C1483.16,103.058 1479.68,106.521 1475.91,109.047C1472.13,111.573 1467.57,113.487 1462.24,114.789C1456.9,116.091 1450.76,116.742 1443.84,116.742L1402.51,116.742ZM2975.55,116.742L2975.55,100.727L2991.73,100.727L2991.73,116.742L2975.55,116.742ZM660.711,116.742L704.696,2.211L721.024,2.211L767.899,116.742L750.633,116.742L737.274,82.055L689.383,82.055L676.805,116.742L660.711,116.742ZM3020.01,116.742L3020.01,100.727L3036.18,100.727L3036.18,116.742L3020.01,116.742ZM3064.46,116.742L3064.46,100.727L3080.63,100.727L3080.63,116.742L3064.46,116.742ZM1167.66,116.742L1211.65,2.211L1227.98,2.211L1274.85,116.742L1257.59,116.742L1244.23,82.055L1196.34,82.055L1183.76,116.742L1167.66,116.742ZM3108.91,116.742L3108.91,100.727L3125.09,100.727L3125.09,116.742L3108.91,116.742ZM2732.74,116.742L2732.74,2.211L2747.9,2.211L2747.9,103.227L2804.3,103.227L2804.3,116.742L2732.74,116.742ZM922.664,116.742L922.664,2.211L1005.48,2.211L1005.48,15.727L937.821,15.727L937.821,50.805L1001.18,50.805L1001.18,64.242L937.821,64.242L937.821,103.227L1008.13,103.227L1008.13,116.742L922.664,116.742ZM2822.66,116.742L2822.66,2.211L2905.48,2.211L2905.48,15.727L2837.82,15.727L2837.82,50.805L2901.18,50.805L2901.18,64.242L2837.82,64.242L2837.82,103.227L2908.13,103.227L2908.13,116.742L2822.66,116.742ZM815.633,116.742L815.633,2.211L858.836,2.211C866.44,2.211 872.248,2.576 876.258,3.305C881.883,4.242 886.597,6.026 890.399,8.656C894.201,11.287 897.261,14.972 899.578,19.711C901.896,24.451 903.055,29.659 903.055,35.336C903.055,45.076 899.956,53.318 893.758,60.063C887.56,66.808 876.362,70.18 860.164,70.18L830.789,70.18L830.789,116.742L815.633,116.742ZM2142.74,116.742L2186.73,2.211L2203.05,2.211L2249.93,116.742L2232.66,116.742L2219.3,82.055L2171.41,82.055L2158.84,116.742L2142.74,116.742ZM2519.93,116.742L2519.93,2.211L2563.13,2.211C2570.74,2.211 2576.55,2.576 2580.55,3.305C2586.18,4.242 2590.89,6.026 2594.7,8.656C2598.5,11.287 2601.56,14.972 2603.88,19.711C2606.19,24.451 2607.35,29.659 2607.35,35.336C2607.35,45.076 2604.25,53.318 2598.05,60.063C2591.86,66.808 2580.66,70.18 2564.46,70.18L2535.09,70.18L2535.09,116.742L2519.93,116.742ZM2626.65,116.742L2626.65,2.211L2669.85,2.211C2677.46,2.211 2683.26,2.576 2687.27,3.305C2692.9,4.242 2697.61,6.026 2701.41,8.656C2705.22,11.287 2708.28,14.972 2710.59,19.711C2712.91,24.451 2714.07,29.659 2714.07,35.336C2714.07,45.076 2710.97,53.318 2704.77,60.063C2698.58,66.808 2687.38,70.18 2671.18,70.18L2641.8,70.18L2641.8,116.742L2626.65,116.742ZM2400.63,116.742L2444.62,2.211L2460.95,2.211L2507.82,116.742L2490.55,116.742L2477.2,82.055L2429.3,82.055L2416.73,116.742L2400.63,116.742ZM1657.82,116.742L1657.82,2.211L1672.98,2.211L1672.98,49.242L1732.51,49.242L1732.51,2.211L1747.66,2.211L1747.66,116.742L1732.51,116.742L1732.51,62.758L1672.98,62.758L1672.98,116.742L1657.82,116.742ZM175.789,116.742L175.789,2.211L190.946,2.211L190.946,49.242L250.477,49.242L250.477,2.211L265.633,2.211L265.633,116.742L250.477,116.742L250.477,62.758L190.946,62.758L190.946,116.742L175.789,116.742ZM1028.91,116.742L1028.91,2.211L1044.46,2.211L1104.62,92.133L1104.62,2.211L1119.15,2.211L1119.15,116.742L1103.6,116.742L1043.45,26.742L1043.45,116.742L1028.91,116.742ZM1286.81,116.742L1286.81,2.211L1302.35,2.211L1362.51,92.133L1362.51,2.211L1377.04,2.211L1377.04,116.742L1361.49,116.742L1301.34,26.742L1301.34,116.742L1286.81,116.742ZM2261.88,116.742L2261.88,2.211L2277.43,2.211L2337.59,92.133L2337.59,2.211L2352.12,2.211L2352.12,116.742L2336.57,116.742L2276.41,26.742L2276.41,116.742L2261.88,116.742ZM1588.76,116.742L1588.76,15.727L1551.02,15.727L1551.02,2.211L1641.81,2.211L1641.81,15.727L1603.91,15.727L1603.91,116.742L1588.76,116.742ZM1417.66,103.227L1442.12,103.227C1449.67,103.227 1455.59,102.524 1459.89,101.117C1464.19,99.711 1467.61,97.732 1470.16,95.18C1473.76,91.586 1476.56,86.755 1478.56,80.688C1480.57,74.62 1481.57,67.263 1481.57,58.617C1481.57,46.638 1479.6,37.433 1475.67,31C1471.74,24.568 1466.96,20.258 1461.34,18.071C1457.27,16.508 1450.74,15.727 1441.73,15.727L1417.66,15.727L1417.66,103.227ZM2979.23,88.305L2974.93,27.602L2974.93,2.211L2992.35,2.211L2992.35,27.602L2988.29,88.305L2979.23,88.305ZM3023.68,88.305L3019.38,27.602L3019.38,2.211L3036.8,2.211L3036.8,27.602L3032.74,88.305L3023.68,88.305ZM3068.13,88.305L3063.84,27.602L3063.84,2.211L3081.26,2.211L3081.26,27.602L3077.2,88.305L3068.13,88.305ZM3112.59,88.305L3108.29,27.602L3108.29,2.211L3125.71,2.211L3125.71,27.602L3121.65,88.305L3112.59,88.305ZM693.758,69.711L732.586,69.711L720.633,37.992C716.987,28.357 714.279,20.44 712.508,14.242C711.05,21.586 708.992,28.878 706.336,36.117L693.758,69.711ZM1200.71,69.711L1239.54,69.711L1227.59,37.992C1223.94,28.357 1221.23,20.44 1219.46,14.242C1218,21.586 1215.95,28.878 1213.29,36.117L1200.71,69.711ZM2175.79,69.711L2214.62,69.711L2202.66,37.992C2199.02,28.357 2196.31,20.44 2194.54,14.242C2193.08,21.586 2191.02,28.878 2188.37,36.117L2175.79,69.711ZM2433.68,69.711L2472.51,69.711L2460.55,37.992C2456.91,28.357 2454.2,20.44 2452.43,14.242C2450.97,21.586 2448.91,28.878 2446.26,36.117L2433.68,69.711ZM830.789,56.664L860.399,56.664C870.19,56.664 877.143,54.841 881.258,51.196C885.373,47.55 887.43,42.42 887.43,35.805C887.43,31.013 886.219,26.912 883.797,23.5C881.375,20.089 878.185,17.836 874.227,16.742C871.675,16.065 866.961,15.727 860.086,15.727L830.789,15.727L830.789,56.664ZM2535.09,56.664L2564.7,56.664C2574.49,56.664 2581.44,54.841 2585.55,51.196C2589.67,47.55 2591.73,42.42 2591.73,35.805C2591.73,31.013 2590.52,26.912 2588.09,23.5C2585.67,20.089 2582.48,17.836 2578.52,16.742C2575.97,16.065 2571.26,15.727 2564.38,15.727L2535.09,15.727L2535.09,56.664ZM2641.8,56.664L2671.41,56.664C2681.21,56.664 2688.16,54.841 2692.27,51.196C2696.39,47.55 2698.45,42.42 2698.45,35.805C2698.45,31.013 2697.24,26.912 2694.81,23.5C2692.39,20.089 2689.2,17.836 2685.24,16.742C2682.69,16.065 2677.98,15.727 2671.1,15.727L2641.8,15.727L2641.8,56.664Z"/>
</svg>
